<?xml version="1.0" encoding="utf-8"?>
<!-- Generator: Adobe Illustrator 16.0.0, SVG Export Plug-In . SVG Version: 6.00 Build 0)  -->
<!DOCTYPE svg PUBLIC "-//W3C//DTD SVG 1.1//EN" "http://www.w3.org/Graphics/SVG/1.1/DTD/svg11.dtd">
<svg version="1.1" id="Layer_1" xmlns="http://www.w3.org/2000/svg" xmlns:xlink="http://www.w3.org/1999/xlink" x="0px" y="0px"
	 width="440px" height="263px" viewBox="200.445 105.14 440 263" enable-background="new 200.445 105.14 440 263"
	 xml:space="preserve">
<path fill="#FFFFFF" d="M625.721,247.636H216.168c-5.238,0-9.524-4.286-9.524-9.524s4.286-9.524,9.524-9.524h409.553
	c5.238,0,9.524,4.286,9.524,9.524S630.959,247.636,625.721,247.636z M635.245,123.818c0-5.238-4.286-9.524-9.524-9.524H216.168
	c-5.238,0-9.524,4.286-9.524,9.524s4.286,9.524,9.524,9.524h409.553C630.959,133.343,635.245,129.056,635.245,123.818z
	 M635.245,352.406c0-5.238-4.286-9.524-9.524-9.524H216.168c-5.238,0-9.524,4.286-9.524,9.524s4.286,9.524,9.524,9.524h409.553
	C630.959,361.93,635.245,357.644,635.245,352.406z"/>
</svg>
