<?xml version="1.0" encoding="utf-8"?>
<!-- Generator: Adobe Illustrator 16.0.0, SVG Export Plug-In . SVG Version: 6.00 Build 0)  -->
<!DOCTYPE svg PUBLIC "-//W3C//DTD SVG 1.1//EN" "http://www.w3.org/Graphics/SVG/1.1/DTD/svg11.dtd">
<svg version="1.1" id="Capa_1" xmlns="http://www.w3.org/2000/svg" xmlns:xlink="http://www.w3.org/1999/xlink" x="0px" y="0px"
	 width="841.889px" height="595.281px" viewBox="0 0 841.889 595.281" enable-background="new 0 0 841.889 595.281"
	 xml:space="preserve">
<g>
	<g>
		<g>
			<path fill="#E06F31" d="M655.429,132.14c-0.647,0-0.647-0.647-1.295-1.295c-0.647-0.648-0.647-1.296-1.296-1.943L541.426,3.886
				c-0.648-0.647-1.943-1.296-2.592-1.943c-0.647,0-0.647-0.647-1.295-0.647C536.243,0.648,534.3,0,532.358,0h-273.35
				c-40.16,0-73.195,33.035-73.195,73.195v448.89c0,40.161,33.035,73.196,73.195,73.196h323.873
				c40.161,0,73.196-33.035,73.196-73.196v-385.41C656.077,135.38,655.429,133.436,655.429,132.14z M544.664,44.047l71.9,80.969
				h-71.9V44.047z M631.463,521.437c0,27.205-21.376,49.229-48.582,49.229H259.008c-27.206,0-48.581-22.023-48.581-48.581V72.548
				c0-27.205,22.023-48.581,48.581-48.581H520.05v112.708c0,6.478,5.182,12.308,12.308,12.308h99.105V521.437z"/>
			<path fill="#E06F31" d="M273.258,148.982h108.174c6.478,0,12.308-5.182,12.308-12.308c0-7.125-5.182-12.307-12.308-12.307
				H273.258c-6.478,0-12.307,5.182-12.307,12.307C260.951,143.801,266.781,148.982,273.258,148.982z"/>
			<path fill="#E06F31" d="M381.432,446.299H273.258c-6.478,0-12.307,5.182-12.307,12.308c0,6.477,5.182,12.307,12.307,12.307
				h108.174c6.478,0,12.308-5.182,12.308-12.307C393.74,452.129,387.909,446.299,381.432,446.299z"/>
			<path fill="#E06F31" d="M260.951,218.291c0,6.478,5.182,12.308,12.307,12.308h288.896c6.478,0,12.308-5.182,12.308-12.308
				c0-6.478-5.183-12.307-12.308-12.307H273.258C266.781,205.984,260.951,211.166,260.951,218.291z"/>
			<path fill="#E06F31" d="M562.154,266.872H273.258c-6.478,0-12.307,5.183-12.307,12.308c0,6.478,5.182,12.308,12.307,12.308
				h288.896c6.478,0,12.308-5.183,12.308-12.308S569.279,266.872,562.154,266.872z"/>
			<path fill="#E06F31" d="M562.154,327.113H273.258c-6.478,0-12.307,5.182-12.307,12.307c0,6.478,5.182,12.308,12.307,12.308
				h288.896c6.478,0,12.308-5.182,12.308-12.308C574.461,332.295,569.279,327.113,562.154,327.113z"/>
			<path fill="#E06F31" d="M562.154,387.353H273.258c-6.478,0-12.307,5.183-12.307,12.308c0,6.478,5.182,12.307,12.307,12.307
				h288.896c6.478,0,12.308-5.182,12.308-12.307C574.461,393.183,569.279,387.353,562.154,387.353z"/>
		</g>
	</g>
</g>
</svg>
