<?xml version="1.0" encoding="utf-8"?>
<!-- Generator: Adobe Illustrator 16.0.0, SVG Export Plug-In . SVG Version: 6.00 Build 0)  -->
<!DOCTYPE svg PUBLIC "-//W3C//DTD SVG 1.1//EN" "http://www.w3.org/Graphics/SVG/1.1/DTD/svg11.dtd">
<svg version="1.1" id="Capa_1" xmlns="http://www.w3.org/2000/svg" xmlns:xlink="http://www.w3.org/1999/xlink" x="0px" y="0px"
	 width="844.519px" height="597.141px" viewBox="0 0 844.519 597.141" enable-background="new 0 0 844.519 597.141"
	 xml:space="preserve">
<g>
	<g>
		<path fill="#303738" d="M430.483,591.345L430.483,591.345l135.289-135.288c5.675-4.86,6.336-13.4,1.476-19.075
			s-13.401-6.337-19.076-1.476c-0.528,0.453-1.022,0.946-1.475,1.476l-112.29,112.153V13.528c0-7.472-6.058-13.528-13.53-13.528
			c-7.473,0-13.529,6.057-13.529,13.528v535.607L295.194,436.982c-4.86-5.675-13.4-6.337-19.075-1.476s-6.337,13.4-1.476,19.075
			c0.453,0.529,0.946,1.023,1.476,1.476l135.289,135.289C416.682,596.592,425.205,596.592,430.483,591.345z"/>
	</g>
</g>
</svg>
