<?xml version="1.0" encoding="utf-8"?>
<!-- Generator: Adobe Illustrator 16.0.0, SVG Export Plug-In . SVG Version: 6.00 Build 0)  -->
<!DOCTYPE svg PUBLIC "-//W3C//DTD SVG 1.1//EN" "http://www.w3.org/Graphics/SVG/1.1/DTD/svg11.dtd">
<svg version="1.1" id="Capa_1" xmlns="http://www.w3.org/2000/svg" xmlns:xlink="http://www.w3.org/1999/xlink" x="0px" y="0px"
	 width="841.889px" height="595.281px" viewBox="0 0 841.889 595.281" enable-background="new 0 0 841.889 595.281"
	 xml:space="preserve">
<g>
	<g>
		<path d="M127.24,307.177L127.24,307.177l135.288,135.289c4.86,5.675,13.4,6.336,19.075,1.476s6.337-13.401,1.476-19.076
			c-0.453-0.528-0.946-1.022-1.476-1.475L169.449,311.1l535.607,0.001c7.472,0,13.528-6.059,13.528-13.53
			c0-7.473-6.057-13.529-13.528-13.529H169.449l112.153-112.153c5.675-4.86,6.337-13.4,1.476-19.075s-13.4-6.337-19.075-1.476
			c-0.529,0.453-1.023,0.946-1.476,1.476L127.239,288.103C121.993,293.377,121.993,301.899,127.24,307.177z"/>
	</g>
</g>
</svg>
