<?xml version="1.0" encoding="utf-8"?>
<!-- Generator: Adobe Illustrator 16.0.0, SVG Export Plug-In . SVG Version: 6.00 Build 0)  -->
<!DOCTYPE svg PUBLIC "-//W3C//DTD SVG 1.1//EN" "http://www.w3.org/Graphics/SVG/1.1/DTD/svg11.dtd">
<svg version="1.1" id="Layer_1_1_" xmlns="http://www.w3.org/2000/svg" xmlns:xlink="http://www.w3.org/1999/xlink" x="0px" y="0px"
	 width="512px" height="512px" viewBox="0 0 512 512" enable-background="new 0 0 512 512" xml:space="preserve">
<path fill="#333333" d="M107.712,294.4c-8.4-4.057-17.776-6.4-27.712-6.4c-35.288,0-64,28.712-64,64s28.712,64,64,64
	c22.144,0,41.688-11.312,53.184-28.456l60.456,30.264C192.6,422.376,192,427.12,192,432c0,35.288,28.712,64,64,64s64-28.712,64-64
	c0-13.264-4.057-25.592-11-35.824l84.952-88.824C404.608,315.256,417.744,320,432,320c35.288,0,64-28.712,64-64s-28.712-64-64-64
	c-14.768,0-28.336,5.072-39.184,13.504l-86.32-86.32C314.928,108.336,320,94.768,320,80c0-35.288-28.712-64-64-64s-64,28.712-64,64
	c0,4.864,0.592,9.592,1.632,14.152l-56.736,20.672C126.256,94.176,104.776,80,80,80c-35.288,0-64,28.712-64,64s28.712,64,64,64
	c9.104,0,17.752-1.936,25.6-5.384l29.448,49.56L107.712,294.4z M80,400c-26.472,0-48-21.528-48-48s21.528-48,48-48s48,21.528,48,48
	S106.472,400,80,400z M140.312,373.208C142.656,366.56,144,359.44,144,352c0-19.624-8.896-37.192-22.84-48.936l23.008-35.537
	l69.368,116.729c-5.84,5.2-10.728,11.424-14.352,18.424L140.312,373.208z M256,144c14.768,0,28.336-5.072,39.184-13.504
	l86.328,86.328c-5.176,6.656-9.048,14.344-11.279,22.712l-50.256-6.912C319.968,232.416,320,232.208,320,232
	c0-35.288-28.712-64-64-64c-22.144,0-41.696,11.312-53.184,28.456l-9.544-4.768l35.024-54.088C236.688,141.656,246.064,144,256,144
	L256,144z M264,368.552v-73.112c26-3.264,47.152-22.16,53.775-46.976l50.257,6.912c0,0.208-0.032,0.416-0.032,0.624
	c0,15.279,5.393,29.305,14.359,40.32l-84,87.832C288.943,375.808,277.096,370.2,264,368.552z M256,184c26.473,0,48,21.528,48,48
	c0,26.473-21.527,48-48,48c-26.472,0-48-21.527-48-48C208,205.528,229.528,184,256,184z M195.688,210.792
	C193.344,217.44,192,224.56,192,232c0,32.576,24.48,59.488,56,63.448v73.111c-7.584,0.952-14.744,3.225-21.264,6.593
	l-72.864-122.616l30.648-47.328L195.688,210.792z M256,480c-26.472,0-48-21.528-48-48s21.528-48,48-48c26.473,0,48,21.528,48,48
	S282.473,480,256,480z M432,208c26.472,0,48,21.528,48,48c0,26.473-21.528,48-48,48s-48-21.527-48-48
	C384,229.528,405.528,208,432,208z M256,32c26.473,0,48,21.528,48,48s-21.527,48-48,48c-26.472,0-48-21.528-48-48S229.528,32,256,32
	z M199.104,109.176c3.912,7.592,9.264,14.304,15.736,19.76l-35.968,55.552l-38.56-19.28C142.656,158.56,144,151.44,144,144
	c0-4.864-0.592-9.592-1.632-14.152L199.104,109.176z M32,144c0-26.472,21.528-48,48-48s48,21.528,48,48s-21.528,48-48,48
	S32,170.472,32,144z M119.32,194.392c5.36-4.192,10.064-9.184,13.864-14.848l36.936,18.464l-25.368,39.176L119.32,194.392z"/>
</svg>
