<?xml version="1.0" encoding="utf-8"?>
<!-- Generator: Adobe Illustrator 16.0.0, SVG Export Plug-In . SVG Version: 6.00 Build 0)  -->
<!DOCTYPE svg PUBLIC "-//W3C//DTD SVG 1.1//EN" "http://www.w3.org/Graphics/SVG/1.1/DTD/svg11.dtd">
<svg version="1.1" id="Layer_1" xmlns="http://www.w3.org/2000/svg" xmlns:xlink="http://www.w3.org/1999/xlink" x="0px" y="0px"
	 width="188.07px" height="321.598px" viewBox="328 0 188.07 321.598" enable-background="new 328 0 188.07 321.598"
	 xml:space="preserve">
<path fill="#333333" d="M363.956,175.839c-3.29-1.589-6.963-2.507-10.855-2.507c-13.82,0-25.065,11.245-25.065,25.066
	s11.245,25.066,25.065,25.066c8.674,0,16.329-4.431,20.831-11.146l23.679,11.854c-0.407,1.789-0.641,3.647-0.641,5.559
	c0,13.821,11.244,25.067,25.065,25.067s25.065-11.246,25.065-25.067c0-5.194-1.587-10.023-4.307-14.03l33.272-34.79
	c4.174,3.097,9.317,4.953,14.901,4.953c13.822,0,25.067-11.245,25.067-25.065c0-13.821-11.245-25.067-25.067-25.067
	c-5.783,0-11.097,1.986-15.347,5.289l-33.808-33.81c3.301-4.248,5.287-9.562,5.287-15.347c0-13.821-11.244-25.065-25.065-25.065
	s-25.065,11.244-25.065,25.065c0,1.905,0.231,3.758,0.638,5.543l-22.221,8.098c-4.168-8.088-12.581-13.641-22.286-13.641
	c-13.82,0-25.065,11.245-25.065,25.067c0,13.82,11.245,25.067,25.065,25.067c3.567,0,6.954-0.759,10.027-2.109l11.534,19.411
	L363.956,175.839z M353.1,217.2c-10.367,0-18.799-8.433-18.799-18.801s8.432-18.8,18.799-18.8c10.37,0,18.802,8.432,18.802,18.8
	S363.47,217.2,353.1,217.2z M376.723,206.706c0.919-2.604,1.444-5.394,1.444-8.307c0-7.686-3.484-14.567-8.944-19.166l9.01-13.919
	l27.171,45.719c-2.289,2.036-4.202,4.474-5.622,7.217L376.723,206.706z M422.035,116.932c5.784,0,11.099-1.986,15.347-5.289
	l33.812,33.812c-2.026,2.606-3.544,5.617-4.418,8.894l-19.683-2.706c-0.004-0.081,0.008-0.164,0.008-0.244
	c0-13.821-11.244-25.067-25.065-25.067c-8.674,0-16.331,4.432-20.83,11.146l-3.739-1.867l13.718-21.185
	C414.47,116.015,418.143,116.932,422.035,116.932L422.035,116.932z M425.168,204.881v-28.635c10.184-1.279,18.47-8.68,21.062-18.399
	l19.684,2.707c0,0.081-0.012,0.163-0.012,0.245c0,5.984,2.111,11.479,5.623,15.792l-32.899,34.4
	C434.938,207.724,430.298,205.528,425.168,204.881z M422.035,132.599c10.369,0,18.8,8.432,18.8,18.8
	c0,10.369-8.431,18.801-18.8,18.801s-18.8-8.432-18.8-18.801C403.235,141.031,411.666,132.599,422.035,132.599z M398.412,143.092
	c-0.917,2.604-1.442,5.393-1.442,8.307c0,12.759,9.587,23.3,21.933,24.852v28.635c-2.971,0.374-5.775,1.262-8.329,2.582
	l-28.538-48.024l12.003-18.538L398.412,143.092z M422.035,248.532c-10.369,0-18.8-8.431-18.8-18.8c0-10.368,8.431-18.8,18.8-18.8
	s18.8,8.432,18.8,18.8C440.835,240.101,432.404,248.532,422.035,248.532z M490.968,142c10.369,0,18.801,8.431,18.801,18.8
	s-8.432,18.8-18.801,18.8c-10.367,0-18.8-8.431-18.8-18.8S480.6,142,490.968,142z M422.035,73.066c10.369,0,18.8,8.432,18.8,18.799
	c0,10.369-8.431,18.8-18.8,18.8s-18.8-8.431-18.8-18.8C403.235,81.498,411.666,73.066,422.035,73.066z M399.75,103.293
	c1.532,2.973,3.63,5.602,6.164,7.738l-14.088,21.759l-15.103-7.552c0.919-2.604,1.444-5.393,1.444-8.307
	c0-1.905-0.23-3.757-0.639-5.543L399.75,103.293z M334.302,116.932c0-10.369,8.432-18.8,18.799-18.8
	c10.37,0,18.802,8.431,18.802,18.8c0,10.368-8.432,18.8-18.802,18.8C342.733,135.732,334.302,127.3,334.302,116.932z
	 M368.502,136.668c2.1-1.642,3.941-3.597,5.43-5.814l14.467,7.231l-9.936,15.345L368.502,136.668z"/>
</svg>
