<?xml version="1.0" encoding="utf-8"?>
<!-- Generator: Adobe Illustrator 16.0.0, SVG Export Plug-In . SVG Version: 6.00 Build 0)  -->
<!DOCTYPE svg PUBLIC "-//W3C//DTD SVG 1.1//EN" "http://www.w3.org/Graphics/SVG/1.1/DTD/svg11.dtd">
<svg version="1.1" id="Capa_1" xmlns="http://www.w3.org/2000/svg" xmlns:xlink="http://www.w3.org/1999/xlink" x="0px" y="0px"
	 width="841.889px" height="595.281px" viewBox="0 0 841.889 595.281" enable-background="new 0 0 841.889 595.281"
	 xml:space="preserve">
<g>
	<g>
		<path fill="#FFFFFF" d="M714.651,288.102L714.651,288.102L579.363,152.813c-4.86-5.675-13.4-6.336-19.075-1.476
			s-6.337,13.401-1.476,19.076c0.453,0.528,0.946,1.022,1.476,1.475l112.153,112.29H136.833c-7.472,0-13.528,6.058-13.528,13.529
			c0,7.473,6.057,13.529,13.528,13.529h535.607L560.287,423.39c-5.675,4.86-6.337,13.4-1.476,19.075s13.4,6.337,19.075,1.476
			c0.529-0.453,1.023-0.946,1.476-1.476l135.289-135.289C719.897,301.902,719.897,293.38,714.651,288.102z"/>
	</g>
</g>
</svg>
