<?xml version="1.0" encoding="utf-8"?>
<!-- Generator: Adobe Illustrator 16.0.0, SVG Export Plug-In . SVG Version: 6.00 Build 0)  -->
<!DOCTYPE svg PUBLIC "-//W3C//DTD SVG 1.1//EN" "http://www.w3.org/Graphics/SVG/1.1/DTD/svg11.dtd">
<svg version="1.1" id="Layer_1" xmlns="http://www.w3.org/2000/svg" xmlns:xlink="http://www.w3.org/1999/xlink" x="0px" y="0px"
	 width="841.889px" height="595.281px" viewBox="0 0 841.889 595.281" enable-background="new 0 0 841.889 595.281"
	 xml:space="preserve">
<path fill="#FFFFFF" d="M695.331,127.311c-20.229,8.952-41.855,14.998-64.644,17.788c23.253-13.951,41.158-36.042,49.529-62.318
	c-21.742,12.905-45.809,22.323-71.504,27.322C588.135,88.13,558.836,74.41,526.514,74.41c-62.202,0-112.545,50.459-112.545,112.661
	c0,8.837,0.93,17.44,2.906,25.695c-93.594-4.65-176.607-49.529-232.066-117.777c-9.649,16.626-15.23,36.042-15.23,56.621
	c0,39.065,19.998,73.597,50.227,93.827c-18.603-0.466-36.042-5.581-51.156-14.068v1.395c0,54.646,38.832,100.105,90.338,110.453
	c-9.417,2.558-19.416,3.953-29.647,3.953c-7.209,0-14.301-0.697-21.16-2.093c14.301,44.762,55.924,77.316,105.22,78.247
	c-38.483,30.229-87.083,48.25-139.867,48.25c-9.068,0-18.021-0.581-26.857-1.628c49.646,32.322,108.824,50.925,172.306,50.925
	c207.302,0,320.544-171.725,320.544-320.661c0-4.884-0.116-9.767-0.349-14.533C661.15,169.748,680.217,149.983,695.331,127.311z"/>
</svg>
